# xmcd
#
# Track frame offsets: 
#        150
#        10183
#        30987
#        50020
#        70069
#        85058
#        105759
#        120105
#        146075
#        162485
#        192881
#
# Disc length: 2831 seconds
#
# Revision: 0
# Processed by: cddbd v1.5.2PL0 Copyright (c) Steve Scherf et al.
# Submitted via: ExactAudioCopyFreeDBPlugin 1.0
#
DISCID=7f0b0d0b
DTITLE=Manohari Singh - Hamara Pancham
DYEAR=2005
DGENRE=Stage Musicals
TTITLE0=A Tribute
TTITLE1=Aanewala Pal (Golmaal)
TTITLE2=Karvate Badalte Rahe (Aap Ki Kasam)
TTITLE3=O Mere Dil Ke Chain (Mere Jeevan Saathi)
TTITLE4=Tum Bin Jaaon (Pyar Ka Mausam)
TTITLE5=Karwate Badalte (Aap Ki Kasam)
TTITLE6=Kasme Vaade (Kasme Vaade)
TTITLE7=Suno Kaho (Aap Ki Kasam)
TTITLE8=Kya Nazare (Jheel Ke Us Paar)
TTITLE9=Yeh Kya Hua (Amar Prem)
TTITLE10=Zindagi Ke Safar Mein (Aap Ki Kasam)
EXTD=
EXTT0=
EXTT1=
EXTT2=
EXTT3=
EXTT4=
EXTT5=
EXTT6=
EXTT7=
EXTT8=
EXTT9=
EXTT10=
PLAYORDER=
